<svg id="visual" viewBox="0 0 900 600" width="900" height="600" xmlns="http://www.w3.org/2000/svg" xmlns:xlink="http://www.w3.org/1999/xlink" version="1.1"><g stroke-width="1" stroke-linejoin="bevel"><path d="M489 260L586 225L495 198Z" fill="#0669b5" stroke="#0669b5"></path><path d="M489 260L578 280L586 225Z" fill="#69aaef" stroke="#69aaef"></path><path d="M586 225L527 132L495 198Z" fill="#0669b5" stroke="#0669b5"></path><path d="M578 280L665 237L586 225Z" fill="#5ca3ed" stroke="#5ca3ed"></path><path d="M586 225L575 107L527 132Z" fill="#0462a9" stroke="#0462a9"></path><path d="M665 237L575 107L586 225Z" fill="#0c77cd" stroke="#0c77cd"></path><path d="M414 81L397 220L495 198Z" fill="#2e8ce8" stroke="#2e8ce8"></path><path d="M495 198L397 220L489 260Z" fill="#0669b5" stroke="#0669b5"></path><path d="M622 387L668 335L578 280Z" fill="#2e8ce8" stroke="#2e8ce8"></path><path d="M578 280L668 335L665 237Z" fill="#0870c1" stroke="#0870c1"></path><path d="M505 433L622 387L578 280Z" fill="#4094ea" stroke="#4094ea"></path><path d="M505 433L578 280L489 260Z" fill="#4e9bec" stroke="#4e9bec"></path><path d="M397 220L388 334L489 260Z" fill="#4094ea" stroke="#4094ea"></path><path d="M489 0L414 81L527 132Z" fill="#4094ea" stroke="#4094ea"></path><path d="M527 132L414 81L495 198Z" fill="#1485e6" stroke="#1485e6"></path><path d="M388 334L505 433L489 260Z" fill="#5ca3ed" stroke="#5ca3ed"></path><path d="M397 220L328 238L388 334Z" fill="#0462a9" stroke="#0462a9"></path><path d="M295 127L328 238L397 220Z" fill="#69aaef" stroke="#69aaef"></path><path d="M575 107L489 0L527 132Z" fill="#2e8ce8" stroke="#2e8ce8"></path><path d="M668 335L764 297L665 237Z" fill="#0870c1" stroke="#0870c1"></path><path d="M664 0L593 0L575 107Z" fill="#69aaef" stroke="#69aaef"></path><path d="M575 107L593 0L489 0Z" fill="#0c77cd" stroke="#0c77cd"></path><path d="M726 387L764 297L668 335Z" fill="#5ca3ed" stroke="#5ca3ed"></path><path d="M733 79L575 107L665 237Z" fill="#4094ea" stroke="#4094ea"></path><path d="M328 238L300 301L388 334Z" fill="#0462a9" stroke="#0462a9"></path><path d="M388 334L392 434L505 433Z" fill="#0669b5" stroke="#0669b5"></path><path d="M689 468L726 387L622 387Z" fill="#0870c1" stroke="#0870c1"></path><path d="M622 387L726 387L668 335Z" fill="#5ca3ed" stroke="#5ca3ed"></path><path d="M279 416L392 434L388 334Z" fill="#1485e6" stroke="#1485e6"></path><path d="M807 219L733 79L665 237Z" fill="#5ca3ed" stroke="#5ca3ed"></path><path d="M392 434L417 466L505 433Z" fill="#69aaef" stroke="#69aaef"></path><path d="M593 511L689 468L622 387Z" fill="#0870c1" stroke="#0870c1"></path><path d="M312 0L295 127L414 81Z" fill="#1485e6" stroke="#1485e6"></path><path d="M414 81L295 127L397 220Z" fill="#0c77cd" stroke="#0c77cd"></path><path d="M328 238L217 269L300 301Z" fill="#5ca3ed" stroke="#5ca3ed"></path><path d="M733 79L664 0L575 107Z" fill="#4e9bec" stroke="#4e9bec"></path><path d="M489 0L404 0L414 81Z" fill="#0669b5" stroke="#0669b5"></path><path d="M900 290L807 219L764 297Z" fill="#1485e6" stroke="#1485e6"></path><path d="M764 297L807 219L665 237Z" fill="#107eda" stroke="#107eda"></path><path d="M593 511L622 387L505 433Z" fill="#0c77cd" stroke="#0c77cd"></path><path d="M726 387L798 393L764 297Z" fill="#0c77cd" stroke="#0c77cd"></path><path d="M488 525L593 511L505 433Z" fill="#69aaef" stroke="#69aaef"></path><path d="M417 466L488 525L505 433Z" fill="#0669b5" stroke="#0669b5"></path><path d="M236 68L233 185L295 127Z" fill="#4e9bec" stroke="#4e9bec"></path><path d="M295 127L233 185L328 238Z" fill="#2e8ce8" stroke="#2e8ce8"></path><path d="M689 468L798 393L726 387Z" fill="#107eda" stroke="#107eda"></path><path d="M186 366L279 416L300 301Z" fill="#107eda" stroke="#107eda"></path><path d="M300 301L279 416L388 334Z" fill="#5ca3ed" stroke="#5ca3ed"></path><path d="M392 434L276 484L417 466Z" fill="#5ca3ed" stroke="#5ca3ed"></path><path d="M384 600L479 600L488 525Z" fill="#4094ea" stroke="#4094ea"></path><path d="M807 219L825 104L733 79Z" fill="#4094ea" stroke="#4094ea"></path><path d="M733 79L791 0L664 0Z" fill="#0c77cd" stroke="#0c77cd"></path><path d="M900 163L825 104L807 219Z" fill="#4e9bec" stroke="#4e9bec"></path><path d="M233 185L217 269L328 238Z" fill="#0870c1" stroke="#0870c1"></path><path d="M404 0L312 0L414 81Z" fill="#107eda" stroke="#107eda"></path><path d="M312 0L236 68L295 127Z" fill="#69aaef" stroke="#69aaef"></path><path d="M83 294L121 363L217 269Z" fill="#4e9bec" stroke="#4e9bec"></path><path d="M825 104L791 0L733 79Z" fill="#0669b5" stroke="#0669b5"></path><path d="M225 466L276 484L279 416Z" fill="#0c77cd" stroke="#0c77cd"></path><path d="M279 416L276 484L392 434Z" fill="#69aaef" stroke="#69aaef"></path><path d="M488 525L569 600L593 511Z" fill="#5ca3ed" stroke="#5ca3ed"></path><path d="M593 511L667 600L689 468Z" fill="#4094ea" stroke="#4094ea"></path><path d="M689 468L827 537L798 393Z" fill="#0870c1" stroke="#0870c1"></path><path d="M479 600L569 600L488 525Z" fill="#4e9bec" stroke="#4e9bec"></path><path d="M798 393L900 290L764 297Z" fill="#69aaef" stroke="#69aaef"></path><path d="M825 104L900 0L791 0Z" fill="#0669b5" stroke="#0669b5"></path><path d="M384 600L488 525L417 466Z" fill="#5ca3ed" stroke="#5ca3ed"></path><path d="M900 290L900 163L807 219Z" fill="#69aaef" stroke="#69aaef"></path><path d="M121 363L186 366L217 269Z" fill="#2e8ce8" stroke="#2e8ce8"></path><path d="M217 269L186 366L300 301Z" fill="#4e9bec" stroke="#4e9bec"></path><path d="M312 0L228 0L236 68Z" fill="#1485e6" stroke="#1485e6"></path><path d="M83 294L217 269L66 226Z" fill="#107eda" stroke="#107eda"></path><path d="M186 366L225 466L279 416Z" fill="#4e9bec" stroke="#4e9bec"></path><path d="M276 484L384 600L417 466Z" fill="#0870c1" stroke="#0870c1"></path><path d="M569 600L667 600L593 511Z" fill="#107eda" stroke="#107eda"></path><path d="M798 393L900 401L900 290Z" fill="#5ca3ed" stroke="#5ca3ed"></path><path d="M900 163L900 85L825 104Z" fill="#4e9bec" stroke="#4e9bec"></path><path d="M280 600L384 600L276 484Z" fill="#4e9bec" stroke="#4e9bec"></path><path d="M827 537L900 401L798 393Z" fill="#0669b5" stroke="#0669b5"></path><path d="M784 600L827 537L689 468Z" fill="#107eda" stroke="#107eda"></path><path d="M186 366L121 363L225 466Z" fill="#4e9bec" stroke="#4e9bec"></path><path d="M217 269L233 185L66 226Z" fill="#4094ea" stroke="#4094ea"></path><path d="M900 85L900 0L825 104Z" fill="#69aaef" stroke="#69aaef"></path><path d="M667 600L784 600L689 468Z" fill="#0462a9" stroke="#0462a9"></path><path d="M214 600L280 600L276 484Z" fill="#5ca3ed" stroke="#5ca3ed"></path><path d="M214 600L276 484L225 466Z" fill="#0669b5" stroke="#0669b5"></path><path d="M66 226L233 185L60 94Z" fill="#69aaef" stroke="#69aaef"></path><path d="M900 600L900 525L827 537Z" fill="#0669b5" stroke="#0669b5"></path><path d="M827 537L900 525L900 401Z" fill="#69aaef" stroke="#69aaef"></path><path d="M60 94L233 185L236 68Z" fill="#5ca3ed" stroke="#5ca3ed"></path><path d="M65 515L214 600L225 466Z" fill="#5ca3ed" stroke="#5ca3ed"></path><path d="M65 515L225 466L121 363Z" fill="#0462a9" stroke="#0462a9"></path><path d="M81 0L60 94L236 68Z" fill="#0c77cd" stroke="#0c77cd"></path><path d="M228 0L81 0L236 68Z" fill="#0462a9" stroke="#0462a9"></path><path d="M784 600L900 600L827 537Z" fill="#4094ea" stroke="#4094ea"></path><path d="M0 106L0 193L60 94Z" fill="#107eda" stroke="#107eda"></path><path d="M60 94L0 193L66 226Z" fill="#5ca3ed" stroke="#5ca3ed"></path><path d="M66 226L0 330L83 294Z" fill="#0462a9" stroke="#0462a9"></path><path d="M83 294L0 330L121 363Z" fill="#0c77cd" stroke="#0c77cd"></path><path d="M0 193L0 330L66 226Z" fill="#2e8ce8" stroke="#2e8ce8"></path><path d="M0 411L65 515L121 363Z" fill="#4e9bec" stroke="#4e9bec"></path><path d="M0 0L0 106L60 94Z" fill="#2e8ce8" stroke="#2e8ce8"></path><path d="M0 330L0 411L121 363Z" fill="#0669b5" stroke="#0669b5"></path><path d="M81 0L0 0L60 94Z" fill="#2e8ce8" stroke="#2e8ce8"></path><path d="M0 600L68 600L65 515Z" fill="#1485e6" stroke="#1485e6"></path><path d="M65 515L68 600L214 600Z" fill="#4e9bec" stroke="#4e9bec"></path><path d="M0 411L0 496L65 515Z" fill="#4e9bec" stroke="#4e9bec"></path><path d="M0 496L0 600L65 515Z" fill="#69aaef" stroke="#69aaef"></path></g></svg>